<?xml version="1.0" standalone="no"?>
<!DOCTYPE svg PUBLIC "-//W3C//DTD SVG 20010904//EN"
 "http://www.w3.org/TR/2001/REC-SVG-20010904/DTD/svg10.dtd">
<svg version="1.0" xmlns="http://www.w3.org/2000/svg"
 width="728.000000pt" height="579.000000pt" viewBox="0 0 728.000000 579.000000"
 preserveAspectRatio="xMidYMid meet">

<g transform="translate(0.000000,579.000000) scale(0.100000,-0.100000)"
fill="#000000" stroke="none">
<path d="M0 2895 l0 -2895 3640 0 3640 0 0 2895 0 2895 -3640 0 -3640 0 0
-2895z m2798 145 c78 0 92 -2 92 -16 0 -13 -7 -15 -32 -10 -18 3 -68 8 -112
12 -61 6 -80 4 -87 -7 -22 -35 -11 -39 106 -39 100 0 115 -2 115 -16 0 -13 -7
-15 -37 -11 -21 4 -75 9 -119 13 -75 6 -82 5 -88 -12 -5 -17 -14 -19 -81 -16
-61 3 -75 1 -75 -11 0 -10 19 -18 59 -26 33 -6 65 -18 71 -26 10 -12 39 -15
131 -15 103 0 119 -2 119 -16 0 -17 -5 -17 -176 2 -51 6 -52 6 -47 -20 l5 -26
104 0 c86 0 104 -3 104 -15 0 -17 -36 -18 -135 -5 -62 8 -77 3 -80 -27 -3 -34
-46 -91 -78 -104 -41 -18 -231 -19 -248 -2 -9 9 -9 23 1 57 l12 45 87 -2 c70
-2 86 1 86 13 0 10 -15 17 -48 22 -59 8 -95 30 -103 63 -9 37 4 106 26 143 33
54 67 64 210 57 69 -3 167 -5 218 -5z m736 0 c3 -3 -3 -27 -12 -52 l-17 -47
-65 -3 -65 -3 -17 -85 c-10 -47 -15 -91 -13 -99 4 -11 20 -12 71 -7 l66 7 -7
-48 c-3 -26 -11 -52 -16 -58 -6 -5 -45 -10 -87 -10 -91 0 -125 17 -149 73 -20
49 -4 166 35 242 38 77 88 102 194 98 42 -2 79 -5 82 -8z m935 -7 c3 -2 0 -7
-5 -12 -5 -6 -47 -5 -101 1 -102 12 -123 8 -123 -22 0 -19 6 -20 110 -20 95 0
110 -2 110 -16 0 -13 -7 -15 -37 -11 -21 3 -71 9 -112 13 -66 6 -76 5 -88 -12
-11 -16 -24 -18 -83 -15 -58 2 -70 0 -70 -13 0 -10 13 -17 38 -21 104 -16 138
-65 109 -159 -10 -29 -26 -61 -36 -70 -30 -27 -90 -45 -151 -45 -54 0 -136 12
-145 21 -3 3 2 25 11 51 l16 46 86 -2 c71 -2 87 1 87 13 0 10 -15 17 -49 22
-28 4 -61 15 -75 26 -58 43 -27 186 49 225 32 16 56 17 245 11 116 -4 212 -8
214 -11z m822 -21 l29 -32 116 0 c88 0 115 -3 111 -12 -4 -15 -16 -15 -139 -4
l-88 8 0 -26 0 -26 111 0 c84 0 110 -3 106 -12 -4 -15 -40 -16 -144 -5 l-73 8
0 -25 0 -26 106 0 c80 0 105 -3 101 -12 -4 -14 -37 -15 -147 -8 -61 5 -65 4
-68 -17 -3 -23 -2 -23 102 -23 66 0 106 -4 106 -10 0 -19 -29 -22 -118 -12
-91 11 -112 6 -112 -28 0 -31 -72 -97 -120 -110 -57 -16 -146 -7 -179 18 -59
44 -61 176 -3 292 38 78 87 102 195 98 74 -3 80 -5 108 -36z m-4201 13 c0 -13
-9 -15 -47 -10 -27 4 -77 10 -113 14 -62 8 -60 9 48 10 95 1 112 -1 112 -14z
m188 -72 c2 -46 7 -83 11 -83 5 0 25 37 43 83 l35 82 202 3 c161 2 202 0 198
-10 -2 -7 -15 -12 -28 -11 -13 0 -66 4 -116 8 l-93 8 0 -27 0 -26 116 0 c88 0
115 -3 111 -12 -4 -15 -25 -15 -149 -4 l-88 8 0 -26 0 -26 116 0 c88 0 115 -3
111 -12 -3 -10 -24 -12 -78 -9 -146 9 -154 8 -157 -16 -3 -23 -2 -23 113 -23
89 0 116 -3 112 -12 -4 -15 -48 -16 -154 -5 -73 7 -73 7 -73 -18 0 -24 1 -24
105 -27 64 -2 104 -7 103 -13 -3 -12 -55 -13 -149 -3 l-66 7 -9 -72 -9 -72
-54 -3 c-78 -5 -80 -3 -69 64 15 98 5 103 -30 15 l-34 -82 -46 3 -47 3 -7 73
c-3 40 -8 75 -11 78 -2 2 -10 -24 -17 -58 -20 -95 -22 -98 -85 -98 -29 0 -56
4 -59 8 -4 7 61 310 80 375 5 16 16 17 87 15 l82 -3 3 -82z m632 79 c0 -5 -11
-69 -25 -143 -14 -74 -25 -137 -25 -141 0 -10 52 -10 68 0 9 6 62 253 62 289
0 2 28 3 63 3 l64 0 -5 -30 -4 -30 117 0 c89 0 116 -3 112 -12 -4 -14 -13 -15
-144 -3 l-93 8 0 -27 0 -26 116 0 c88 0 115 -3 111 -12 -4 -15 -37 -15 -154
-4 l-83 8 0 -26 0 -25 117 -3 c89 -2 117 -6 121 -17 4 -11 -6 -13 -54 -8 -33
4 -89 10 -126 13 l-68 7 0 -26 c0 -45 -40 -135 -70 -161 -55 -46 -200 -46
-247 0 -17 17 -23 34 -23 65 0 38 35 267 45 297 5 14 125 18 125 4z m465 -2
c-7 -11 -74 -12 -155 0 -48 6 -41 7 53 9 70 1 106 -3 102 -9z m657 -20 l-4
-30 112 0 c91 0 110 -2 102 -13 -8 -10 -26 -11 -69 -6 -32 4 -79 8 -105 8 -45
1 -48 -1 -48 -24 l0 -25 101 0 c76 0 100 -3 96 -12 -4 -14 -11 -14 -129 -3
l-78 7 0 -26 0 -26 101 0 c76 0 100 -3 96 -12 -4 -15 -31 -15 -134 -4 l-73 7
0 -25 0 -26 100 0 c85 0 100 -2 100 -16 0 -14 -10 -15 -77 -8 -135 13 -124 18
-142 -61 l-16 -70 -54 -3 c-30 -2 -57 0 -62 5 -4 4 -2 40 5 78 7 39 23 125 36
193 l23 122 62 0 62 0 -5 -30z m261 19 c-7 -7 -34 -7 -84 -1 l-74 9 85 2 c59
1 81 -2 73 -10z m672 1 c-7 -11 -74 -12 -155 0 -48 6 -41 7 53 9 70 1 106 -3
102 -9z m820 -20 l-7 -30 102 0 c83 0 100 -2 92 -13 -9 -10 -30 -11 -98 -4
-76 9 -88 8 -96 -7 -6 -11 -22 -16 -49 -16 -23 0 -42 -5 -44 -12 -3 -7 -15
-74 -28 -148 l-23 -135 -53 -3 c-30 -2 -58 1 -62 5 -7 7 17 184 36 271 5 20 2
22 -34 22 -22 0 -42 3 -44 8 -2 4 0 26 5 50 l9 42 150 0 151 0 -7 -30z m238
19 c-7 -7 -34 -7 -84 -1 l-74 9 85 2 c59 1 81 -2 73 -10z m537 2 c0 -18 -15
-19 -120 -6 l-105 13 113 1 c64 0 112 -3 112 -8z m300 -21 c28 -30 29 -30 134
-30 91 0 106 -2 106 -16 0 -13 -7 -15 -37 -11 -21 3 -71 9 -110 13 l-73 7 0
-27 0 -26 105 0 c87 0 105 -3 105 -15 0 -18 -1 -18 -113 -4 -49 6 -90 9 -92 7
-1 -1 -6 -13 -9 -25 -7 -23 -7 -23 98 -23 91 0 106 -2 106 -16 0 -17 -39 -16
-176 2 -38 5 -42 4 -53 -25 -7 -17 -22 -33 -33 -37 -10 -3 -17 -11 -14 -17 3
-7 10 -31 17 -54 l11 -43 110 0 c84 0 109 -3 105 -12 -2 -7 -8 -12 -13 -12 -5
1 -51 5 -101 9 -68 5 -93 4 -93 -4 0 -8 -21 -11 -67 -9 l-67 3 -14 58 c-8 32
-20 57 -27 57 -8 0 -16 -22 -21 -57 l-9 -58 -54 -3 c-30 -2 -58 1 -62 5 -7 7
35 282 56 371 5 21 9 22 131 22 l126 0 28 -30z m250 15 c0 -13 -9 -15 -47 -10
-27 4 -77 10 -113 14 -62 8 -60 9 48 10 95 1 112 -1 112 -14z m284 -12 c-18
-73 -18 -73 -89 -73 -36 0 -65 -4 -65 -9 0 -5 -3 -16 -6 -25 -5 -14 3 -16 56
-16 l62 0 -7 -42 c-4 -24 -9 -46 -12 -50 -2 -5 -31 -8 -64 -8 -52 0 -59 -2
-59 -20 0 -17 8 -19 68 -22 l67 -3 -1 -37 c-2 -69 0 -68 -142 -68 -71 0 -131
2 -134 5 -3 3 3 49 12 103 10 53 26 141 35 195 l17 97 134 0 134 0 -6 -27z
m-5314 -43 c0 -19 -24 -20 -130 -6 l-105 13 118 2 c74 1 117 -3 117 -9z m2850
1 c0 -19 -18 -20 -126 -7 l-109 14 118 1 c67 0 117 -3 117 -8z m-2866 -66 c-7
-17 -15 -17 -149 0 l-100 12 127 2 c109 1 127 -1 122 -14z m1806 -1 c0 -13
-10 -14 -72 -8 -166 16 -178 21 -50 23 104 1 122 -1 122 -15z m1040 1 c0 -18
-9 -18 -145 0 l-100 12 123 2 c102 1 122 -1 122 -14z m630 5 c0 -19 -25 -21
-135 -7 l-110 14 123 2 c78 1 122 -3 122 -9z m410 1 c0 -18 -15 -19 -120 -6
l-105 13 113 1 c64 0 112 -3 112 -8z m-3900 -67 c0 -14 -10 -15 -75 -9 -162
15 -177 23 -47 24 106 1 122 -1 122 -15z m2860 0 c0 -14 -10 -15 -72 -9 -146
14 -160 23 -40 24 96 1 112 -1 112 -15z m617 4 c-5 -14 -105 -14 -192 1 -42 7
-29 9 73 10 95 1 123 -2 119 -11z m410 0 c-4 -14 -86 -13 -173 1 -41 7 -30 9
64 10 87 1 113 -2 109 -11z m-3905 -63 c-3 -12 -165 -8 -196 5 -13 6 18 8 89
7 68 -1 109 -6 107 -12z m1334 0 c17 -14 10 -14 -76 -8 -140 9 -163 21 -44 22
75 1 105 -3 120 -14z m1590 0 c17 -14 10 -15 -76 -9 -140 10 -163 22 -44 23
76 1 105 -3 120 -14z m556 0 c-3 -12 -165 -8 -196 5 -13 6 18 8 89 7 68 -1
109 -6 107 -12z m418 -1 c0 -14 -10 -15 -77 -9 -127 12 -139 23 -25 24 87 1
102 -1 102 -15z m1140 0 c0 -14 -10 -15 -85 -9 -141 11 -154 23 -27 24 97 1
112 -1 112 -15z m-5055 -55 c12 -19 -3 -21 -97 -13 -65 5 -86 9 -68 15 39 11
158 10 165 -2z m704 2 c27 -17 -10 -22 -102 -15 -64 5 -84 10 -67 15 36 10
152 10 169 0z m576 -2 c12 -19 -2 -21 -87 -13 -59 5 -76 10 -58 15 39 11 138
10 145 -2z m540 0 c12 -19 -3 -21 -97 -13 -65 5 -86 9 -68 15 39 11 158 10
165 -2z m360 0 c12 -18 0 -20 -86 -13 -60 6 -77 10 -59 15 39 11 138 10 145
-2z m690 2 c11 -18 -16 -23 -93 -15 -53 5 -71 9 -57 15 28 11 143 11 150 0z
m614 0 c27 -17 -10 -22 -102 -15 -64 5 -84 10 -67 15 36 10 152 10 169 0z
m426 -2 c12 -18 -1 -20 -81 -13 -53 5 -72 10 -59 15 30 12 133 10 140 -2z
m580 2 c11 -19 -17 -22 -108 -15 -64 5 -84 10 -67 15 37 11 168 10 175 0z
m550 -2 c12 -19 -3 -21 -97 -14 -62 5 -86 10 -73 16 30 12 163 11 170 -2z
m-5045 -69 c0 -11 -79 -12 -160 0 -48 6 -42 7 53 9 65 0 107 -3 107 -9z m735
0 c7 -12 -62 -12 -145 0 -50 7 -47 7 42 9 55 0 99 -3 103 -9z m535 0 c0 -12
-66 -12 -130 -1 -39 8 -34 9 43 10 52 0 87 -3 87 -9z m548 -2 c-5 -13 -46 -13
-153 2 -55 7 -51 7 48 9 81 1 108 -2 105 -11z m397 1 c5 -7 -15 -8 -66 -3 -41
3 -76 8 -78 10 -2 2 28 4 67 4 39 0 74 -5 77 -11z m638 0 c-9 -9 -34 -9 -95
-2 l-83 10 95 2 c70 1 91 -2 83 -10z m628 -2 c-8 -10 -27 -12 -78 -6 -38 5
-84 10 -103 12 -19 2 16 5 79 5 93 2 111 0 102 -11z m464 2 c5 -7 -15 -8 -66
-3 -41 3 -76 8 -78 10 -2 2 28 4 67 4 39 0 74 -5 77 -11z m536 -2 c-8 -10 -27
-12 -78 -6 -127 15 -128 16 -19 18 89 1 106 -1 97 -12z m-2833 -924 c-1 -19
-13 -38 -37 -58 -30 -24 -32 -25 -15 -5 11 14 27 40 34 58 15 39 19 40 18 5z
m1958 -18 c1 -14 -2 -22 -7 -19 -11 6 -12 44 -1 44 4 0 8 -11 8 -25z m101 -41
c3 -8 0 -21 -7 -27 -10 -9 -12 -9 -7 4 3 9 0 22 -6 28 -8 8 -8 11 1 11 7 0 15
-7 19 -16z m-1967 -78 c-19 -27 -29 -49 -25 -57 5 -8 4 -10 -3 -5 -18 11 -14
25 19 67 42 53 48 49 9 -5z m70 21 c0 -15 -51 -87 -62 -87 -5 0 5 18 23 39 19
25 29 46 25 56 -3 9 -2 13 4 10 6 -3 10 -11 10 -18z m1675 13 c-11 -18 6 -52
24 -47 12 3 16 -3 16 -22 0 -21 5 -26 22 -25 18 0 20 -2 11 -13 -13 -17 -32
-2 -74 59 -23 33 -25 41 -13 49 18 11 22 11 14 -1z m-1591 -135 c-14 -25 -23
-52 -20 -60 3 -8 1 -15 -4 -15 -6 0 -10 8 -10 18 0 21 42 102 53 102 4 0 -4
-20 -19 -45z m1459 28 c3 -10 17 -37 32 -60 14 -24 24 -43 20 -43 -3 0 -19 23
-36 50 -17 28 -35 50 -40 50 -6 0 -7 5 -4 10 9 15 22 12 28 -7z m-1412 -51
c-11 -23 -26 -44 -32 -48 -7 -4 1 16 17 44 33 60 45 62 15 4z m143 -20 c-17
-11 -26 -49 -14 -57 16 -10 42 16 37 37 -3 10 -1 18 4 18 14 0 10 -37 -6 -54
-8 -8 -15 -23 -15 -33 0 -10 -5 -25 -10 -33 -8 -11 -9 -6 -8 19 4 42 -14 51
-31 15 -6 -15 -14 -24 -17 -22 -9 10 45 118 58 118 9 0 10 -3 2 -8z m1152 -43
c14 -28 23 -53 20 -56 -5 -5 -30 39 -46 82 -16 42 -2 28 26 -26z m-159 -123
c-5 -14 -37 82 -36 108 0 12 9 -6 20 -39 11 -32 18 -64 16 -69z m36 76 c3 -15
8 -38 12 -52 6 -24 6 -24 -10 3 -8 15 -19 27 -23 27 -4 0 -7 15 -7 34 0 40 20
32 28 -12z m-734 -58 c-6 -32 -13 -61 -16 -64 -7 -6 7 112 14 123 12 19 12 -3
2 -59z m506 29 c0 -16 4 -44 8 -63 5 -22 4 -31 -2 -25 -13 13 -26 115 -15 115
5 0 9 -12 9 -27z m54 -25 c8 -35 8 -55 1 -62 -7 -7 -10 1 -10 26 0 20 -4 48
-10 62 -5 15 -6 26 -1 26 5 0 14 -23 20 -52z m-365 -5 c4 -21 9 -51 12 -68 l5
-30 -15 24 c-7 14 -12 30 -9 37 2 7 0 15 -6 19 -6 3 -11 -2 -11 -12 0 -11 -7
-28 -16 -39 -15 -19 -15 -19 -10 1 15 61 30 105 36 105 4 0 11 -17 14 -37z
m157 -33 c5 0 9 13 9 29 0 17 5 33 11 37 8 4 9 -3 5 -25 -3 -17 -9 -44 -12
-61 -8 -43 -18 -37 -37 23 -21 66 -21 85 0 35 9 -21 20 -38 24 -38z"/>
<path d="M5113 2932 c-9 -6 -43 -149 -43 -183 0 -14 64 -11 82 4 10 7 22 45
30 100 l15 87 -36 0 c-20 0 -41 -4 -48 -8z"/>
<path d="M5686 2928 c-3 -7 -7 -25 -10 -40 -6 -26 -4 -28 24 -28 24 0 33 6 41
27 5 14 8 32 5 40 -7 17 -55 17 -60 1z"/>
</g>
</svg>
